#!OML:ASF I:\Actors\actors\Patient Classification 1\Patient 1\Session 1\Subject1.ASF
:FULLY-SPECIFIED
:DEGREES
381
root 1.04957 17.4604 9.25274 7.4909 1.2566 -7.70195
lowerback -4.24517 0.0841519 4.19424
upperback -11.6547 0.355343 2.12288
thorax -10.0001 -0.0828866 -0.0849961
lowerneck -5.37721 0.486759 -0.273638
upperneck 26.4519 -0.80578 6.13746
head 9.18371 0.233482 2.08642
rclavicle 5.06901e-015 -1.49089e-014
rhumerus -52.0152 -27.591 -58.6515
rradius 23.5587
rwrist 47.683
rhand 6.02191 -33.4325
rfingers 7.12502
rthumb 31.3442 -60.7678
lclavicle 5.06901e-015 -1.49089e-014
lhumerus 22.2443 -14.6255 63.3847
lradius 143.96
lwrist 55.8398
lhand -0.961717 -5.44394
lfingers 7.12502
lthumb 24.6689 22.986
rfemur -1.82394 23.4673 24.1904
rtibia 2.94062
rfoot -13.7641 -27.972
rtoes 4.20045
lfemur 5.95011 -41.6826 -15.311
ltibia -4.80335
lfoot -15.2804 47.8948
ltoes 7.3267
382
root 1.04366 17.4596 9.25442 7.44711 1.26276 -7.72349
lowerback -4.24085 0.0863521 4.19655
upperback -11.6313 0.356956 2.11379
thorax -9.97558 -0.0822701 -0.0964722
lowerneck -5.35859 0.476691 -0.21269
upperneck 26.4671 -0.829192 6.13474
head 9.18677 0.22817 2.07299
rclavicle 0 -1.03368e-014
rhumerus -52.2757 -27.86 -58.2018
rradius 23.4265
rwrist 48.0509
rhand 5.96157 -33.4067
rfingers 7.12502
rthumb 31.2867 -60.7531
lclavicle 0 -1.03368e-014
lhumerus 22.2413 -14.6249 63.3097
lradius 143.963
lwrist 55.7791
lhand -1.04403 -5.38129
lfingers 7.12502
lthumb 24.59 23.0594
rfemur -1.67322 23.6415 24.2911
rtibia 2.80321
rfoot -13.7091 -28.1464
rtoes 4.41422
lfemur 6.02188 -41.6627 -15.2992
ltibia -4.82309
lfoot -15.3123 47.8681
ltoes 7.50446
383
root 1.03975 17.46 9.25609 7.38216 1.26639 -7.68623
lowerback -4.21776 0.0920594 4.15969
upperback -11.5962 0.361872 2.08604
thorax -9.94788 -0.0773853 -0.106463
lowerneck -5.39357 0.469472 -0.247592
upperneck 26.5629 -0.875677 6.27679
head 9.22956 0.219902 2.12633
rclavicle -4.47266e-015 -1.25234e-014
rhumerus -52.4965 -28.1647 -57.7544
rradius 23.2704
rwrist 48.3258
rhand 5.86957 -33.4183
rfingers 7.12502
rthumb 31.199 -60.7817
lclavicle -4.47266e-015 -1.25234e-014
lhumerus 22.252 -14.6197 63.2342
lradius 144.003
lwrist 55.6881
lhand -1.14494 -5.24777
lfingers 7.12502
lthumb 24.4933 23.206
rfemur -1.50476 23.7265 24.3183
rtibia 2.66156
rfoot -13.7071 -28.2433
rtoes 4.78026
lfemur 6.1313 -41.647 -15.4008
ltibia -4.82618
lfoot -15.4041 47.8309
ltoes 7.75554
384
root 1.03518 17.4604 9.25731 7.32885 1.27103 -7.66918
lowerback -4.19661 0.09723 4.13755
upperback -11.5751 0.367001 2.06091
thorax -9.93549 -0.0739135 -0.121582
lowerneck -5.47359 0.458651 -0.324817
upperneck 26.7478 -0.935951 6.45489
head 9.31332 0.207152 2.20073
rclavicle -6.06293e-015 4.57205e-015
rhumerus -52.7286 -28.4062 -57.3818
rradius 23.1754
rwrist 48.5152
rhand 5.84267 -33.4407
rfingers 7.12502
rthumb 31.1734 -60.809
lclavicle -6.06293e-015 4.57205e-015
lhumerus 22.2639 -14.6042 63.1382
lradius 144.03
lwrist 55.6451
lhand -1.15817 -5.12754
lfingers 7.12502
lthumb 24.4806 23.328
rfemur -1.37736 23.7588 24.3575
rtibia 2.55967
rfoot -13.7054 -28.3007
rtoes 4.77133
lfemur 6.206 -41.575 -15.4448
ltibia -4.82914
lfoot -15.3519 47.7563
ltoes 7.71474
385
root 1.02987 17.4599 9.25768 7.31989 1.2759 -7.68319
lowerback -4.20104 0.108264 4.15145
upperback -11.5751 0.380116 2.03714
thorax -9.93231 -0.0699851 -0.155273
lowerneck -5.52433 0.42855 -0.376785
upperneck 26.8935 -1.00864 6.56692
head 9.37828 0.183046 2.24571
rclavicle 2.38542e-015 6.55989e-015
rhumerus -52.973 -28.5318 -57.1352
rradius 23.166
rwrist 48.5775
rhand 5.80843 -33.5264
rfingers 7.12502
rthumb 31.1408 -60.9009
lclavicle 2.38542e-015 6.55989e-015
lhumerus 22.271 -14.6184 63.0231
lradius 144.03
lwrist 55.6122
lhand -1.0875 -5.33044
lfingers 7.12502
lthumb 24.5483 23.1159
rfemur -1.35272 23.7004 24.3985
rtibia 2.53165
rfoot -13.6298 -28.2774
rtoes 4.34382
lfemur 6.21741 -41.5395 -15.402
ltibia -4.84334
lfoot -15.2469 47.7131
ltoes 7.56244
386
root 1.02622 17.4592 9.25684 7.35375 1.27572 -7.6893
lowerback -4.21753 0.112279 4.17747
upperback -11.5917 0.38417 2.01741
thorax -9.94158 -0.0717667 -0.190708
lowerneck -5.52291 0.414897 -0.383816
upperneck 26.9449 -1.03557 6.58831
head 9.39759 0.172801 2.25305
rclavicle -3.97569e-016 -4.77083e-015
rhumerus -53.1459 -28.5277 -57.0433
rradius 23.193
rwrist 48.5437
rhand 5.8166 -33.6784
rfingers 7.12502
rthumb 31.1485 -61.0514
lclavicle -3.97569e-016 -4.77083e-015
lhumerus 22.2456 -14.6336 62.9153
lradius 144.005
lwrist 55.5795
lhand -0.955569 -5.7363
lfingers 7.12502
lthumb 24.6748 22.6928
rfemur -1.41856 23.6324 24.3887
rtibia 2.54539
rfoot -13.6149 -28.1924
rtoes 4.28362
lfemur 6.18077 -41.6327 -15.3595
ltibia -4.84452
lfoot -15.3922 47.7674
ltoes 7.80375
